<svg width="13" height="8" viewBox="0 0 13 8" fill="none" xmlns="http://www.w3.org/2000/svg">
<path d="M8.66665 1.9375C8.26717 1.9375 7.94443 1.63027 7.94443 1.25C7.94443 0.869727 8.26717 0.5625 8.66665 0.5625H12.2778C12.6772 0.5625 13 0.869727 13 1.25V4.6875C13 5.06777 12.6772 5.375 12.2778 5.375C11.8783 5.375 11.5555 5.06777 11.5555 4.6875V2.91074L7.73228 6.54805C7.45016 6.8166 6.992 6.8166 6.70988 6.54805L4.33332 4.28574L1.23228 7.23555C0.950157 7.5041 0.491998 7.5041 0.20988 7.23555C-0.0722385 6.96699 -0.0722385 6.53086 0.20988 6.2623L3.82099 2.8248C4.10311 2.55625 4.56127 2.55625 4.84339 2.8248L7.22221 5.08926L10.5331 1.9375H8.66665Z" fill="#01A04A"/>
</svg>
