<svg width="13" height="8" viewBox="0 0 13 8" fill="none" xmlns="http://www.w3.org/2000/svg">
<path d="M8.66665 6.0625C8.26717 6.0625 7.94443 6.36973 7.94443 6.75C7.94443 7.13027 8.26717 7.4375 8.66665 7.4375H12.2778C12.6772 7.4375 13 7.13027 13 6.75V3.3125C13 2.93223 12.6772 2.625 12.2778 2.625C11.8783 2.625 11.5555 2.93223 11.5555 3.3125V5.08926L7.73228 1.45195C7.45016 1.1834 6.992 1.1834 6.70988 1.45195L4.33332 3.71426L1.23228 0.764453C0.950157 0.495899 0.491998 0.495899 0.20988 0.764453C-0.0722385 1.03301 -0.0722385 1.46914 0.20988 1.7377L3.82099 5.1752C4.10311 5.44375 4.56127 5.44375 4.84339 5.1752L7.22221 2.91074L10.5331 6.0625H8.66665Z" fill="#A00101"/>
</svg>
