<svg width="33" height="35" viewBox="0 0 33 35" fill="none" xmlns="http://www.w3.org/2000/svg">
<path d="M23.2633 0.320286H31.1637C31.911 0.320286 32.2847 0.69395 32.2847 1.44128V33.5231C32.2847 34.2705 31.911 34.6441 31.1637 34.6441H26.7865C26.0391 34.6441 25.6655 34.2705 25.6655 33.5231V8.22064H25.452L20.0071 26.1032C19.7936 26.8149 19.3488 27.1708 18.6726 27.1708H14.1886C13.5124 27.1708 13.0676 26.8149 12.8541 26.1032L7.30249 8.16726H7.08897V33.5231C7.08897 33.9502 7.01781 34.2527 6.87544 34.4306C6.73308 34.573 6.43062 34.6441 5.96797 34.6441H1.59075C0.843415 34.6441 0.469749 34.2705 0.469749 33.5231V1.44128C0.469749 0.69395 0.843415 0.320286 1.59075 0.320286H9.54448C10.0427 0.320286 10.3808 0.569414 10.5587 1.06762L16.2171 19.911H16.5374L22.2491 1.06762C22.3559 0.569414 22.6939 0.320286 23.2633 0.320286Z" fill="#20257F"/>
</svg>
